<svg width="75" height="27" viewBox="0 0 75 27" fill="none" xmlns="http://www.w3.org/2000/svg">
<path d="M14.6326 23.4698V27H0V23.4698H14.6326Z" fill="#76D8A4"/>
<path d="M23.9794 23.4698H18.8709L18.9031 19.6979H23.9794C25.2471 19.6979 26.3161 19.4131 27.1863 18.8436C28.0565 18.2633 28.7119 17.4197 29.1523 16.3128C29.6036 15.206 29.8292 13.8681 29.8292 12.2991V11.1546C29.8292 9.95105 29.7003 8.89254 29.4424 7.97911C29.1953 7.06567 28.8247 6.29731 28.3305 5.67403C27.8363 5.05075 27.2293 4.58328 26.5095 4.27164C25.7896 3.94925 24.9624 3.78806 24.0277 3.78806H18.7742V0H24.0277C25.5963 0 27.0305 0.268658 28.3305 0.805971C29.6412 1.33254 30.7746 2.09015 31.7308 3.07881C32.6869 4.06746 33.4229 5.24955 33.9385 6.62508C34.465 7.98985 34.7282 9.51045 34.7282 11.1869V12.2991C34.7282 13.9648 34.465 15.4854 33.9385 16.8609C33.4229 18.2364 32.6869 19.4185 31.7308 20.4072C30.7853 21.3851 29.6519 22.1427 28.3305 22.68C27.0198 23.2066 25.5694 23.4698 23.9794 23.4698ZM21.6104 0V23.4698H16.7759V0H21.6104Z" fill="#323238"/>
<path d="M37.2099 14.9266V14.5881C37.2099 13.3093 37.3926 12.1325 37.7578 11.0579C38.1231 9.97254 38.6549 9.03224 39.3532 8.23701C40.0516 7.44179 40.911 6.82388 41.9317 6.38328C42.9523 5.93194 44.1233 5.70627 45.4448 5.70627C46.7662 5.70627 47.9426 5.93194 48.974 6.38328C50.0054 6.82388 50.8702 7.44179 51.5685 8.23701C52.2776 9.03224 52.8148 9.97254 53.1801 11.0579C53.5453 12.1325 53.728 13.3093 53.728 14.5881V14.9266C53.728 16.1946 53.5453 17.3713 53.1801 18.4567C52.8148 19.5313 52.2776 20.4716 51.5685 21.2776C50.8702 22.0728 50.0107 22.6907 48.9901 23.1313C47.9695 23.5719 46.7985 23.7922 45.477 23.7922C44.1556 23.7922 42.9792 23.5719 41.9478 23.1313C40.9272 22.6907 40.0623 22.0728 39.3532 21.2776C38.6549 20.4716 38.1231 19.5313 37.7578 18.4567C37.3926 17.3713 37.2099 16.1946 37.2099 14.9266ZM41.8511 14.5881V14.9266C41.8511 15.6573 41.9156 16.3397 42.0445 16.9737C42.1734 17.6078 42.3775 18.1666 42.6569 18.6501C42.9469 19.123 43.3229 19.4937 43.7849 19.7624C44.2469 20.031 44.8109 20.1654 45.477 20.1654C46.1216 20.1654 46.6749 20.031 47.1369 19.7624C47.5988 19.4937 47.9695 19.123 48.2488 18.6501C48.5281 18.1666 48.7323 17.6078 48.8612 16.9737C49.0009 16.3397 49.0707 15.6573 49.0707 14.9266V14.5881C49.0707 13.8788 49.0009 13.2125 48.8612 12.5893C48.7323 11.9552 48.5228 11.3964 48.2327 10.9128C47.9534 10.4185 47.5827 10.0316 47.1208 9.75224C46.6588 9.47283 46.1001 9.33313 45.4448 9.33313C44.7894 9.33313 44.2308 9.47283 43.7688 9.75224C43.3176 10.0316 42.9469 10.4185 42.6569 10.9128C42.3775 11.3964 42.1734 11.9552 42.0445 12.5893C41.9156 13.2125 41.8511 13.8788 41.8511 14.5881Z" fill="#323238"/>
<path d="M62.0112 0V23.4698H57.1927V0H62.0112Z" fill="#323238"/>
<path d="M74.7905 6.02866V9.31702H64.6379V6.02866H74.7905ZM67.1519 1.72478H71.7931V18.2149C71.7931 18.72 71.8575 19.1069 71.9865 19.3755C72.1261 19.6442 72.3302 19.8322 72.5988 19.9397C72.8674 20.0364 73.2058 20.0848 73.6141 20.0848C73.9042 20.0848 74.162 20.074 74.3876 20.0525C74.624 20.0203 74.8227 19.9881 74.9839 19.9558L75 23.3731C74.6025 23.5021 74.1728 23.6042 73.7108 23.6794C73.2488 23.7546 72.7385 23.7922 72.1798 23.7922C71.1592 23.7922 70.2675 23.6257 69.5047 23.2925C68.7527 22.9487 68.1725 22.4006 67.7643 21.6484C67.356 20.8961 67.1519 19.9075 67.1519 18.6824V1.72478Z" fill="#323238"/>
</svg>
