<svg width="93" height="93" viewBox="0 0 93 93" fill="none" xmlns="http://www.w3.org/2000/svg">
<rect width="93" height="93" rx="8" fill="#202024"/>
<path fill-rule="evenodd" clip-rule="evenodd" d="M66.0756 18.9163C65.4956 18.3612 64.5813 18.3612 64.0013 18.9163L40.5385 41.3716L35.3833 36.4378C34.7848 35.865 33.8353 35.8858 33.2625 36.4843C32.6897 37.0828 32.7105 38.0324 33.309 38.6051L39.5013 44.5315C40.0813 45.0866 40.9956 45.0866 41.5756 44.5315L65.0385 22.0763L72.8306 29.5337L41.0769 59.9237L27.0371 46.4869C26.4386 45.9141 25.4891 45.9349 24.9163 46.5334C24.3435 47.1319 24.3644 48.0814 24.9629 48.6542L40.0398 63.0837C40.6198 63.6388 41.534 63.6388 42.1141 63.0837L76.0371 30.6174C76.3328 30.3345 76.5 29.943 76.5 29.5337C76.5 29.1245 76.3328 28.733 76.0371 28.4501L66.0756 18.9163ZM66.0629 30.0585C66.6474 29.4715 66.6455 28.5217 66.0585 27.9371C65.4715 27.3526 64.5217 27.3545 63.9371 27.9415L40.9778 50.9962L28.4629 38.4293C28.1814 38.1467 27.7989 37.9878 27.4 37.9878C27.0011 37.9878 26.6186 38.1467 26.3371 38.4293L16.9371 47.8684C16.3543 48.4536 16.3543 49.4 16.9371 49.9853L39.9149 73.0585C40.1964 73.3411 40.5789 73.5 40.9778 73.5C41.3767 73.5 41.7592 73.3411 42.0406 73.0585L51.9629 63.095C52.5474 62.508 52.5455 61.5583 51.9585 60.9737C51.3715 60.3892 50.4217 60.3911 49.8371 60.9781L40.9778 69.8743L20.1169 48.9268L27.4 41.6135L39.9149 54.1804C40.1964 54.4631 40.5789 54.6219 40.9778 54.6219C41.3767 54.6219 41.7592 54.4631 42.0406 54.1804L66.0629 30.0585Z" fill="#76D8A4"/>
</svg>
