<svg xmlns="http://www.w3.org/2000/svg" width="1024" height="1024" fill="none" viewBox="0 0 1024 1024"><rect width="690" height="690" x="167" y="167" fill="#000" rx="100"/><rect width="690" height="690" x="167" y="167" fill="url(#paint0_linear_37_1357)" fill-opacity=".7" rx="100"/><g filter="url(#filter0_diii_37_1357)"><path fill="#0080FF" d="M481.062 697.111L550.025 628.014C557.832 620.184 557.832 607.505 550.025 599.675L367.606 416.908C359.799 409.078 347.131 409.078 339.324 416.908L270.361 486.005C262.554 493.835 262.554 506.514 270.361 514.344L452.78 697.111C460.587 704.941 473.244 704.941 481.062 697.111Z"/><path fill="url(#paint1_linear_37_1357)" d="M481.062 697.111L550.025 628.014C557.832 620.184 557.832 607.505 550.025 599.675L367.606 416.908C359.799 409.078 347.131 409.078 339.324 416.908L270.361 486.005C262.554 493.835 262.554 506.514 270.361 514.344L452.78 697.111C460.587 704.941 473.244 704.941 481.062 697.111Z"/><path fill="url(#paint2_linear_37_1357)" fill-opacity=".7" d="M481.062 697.111L550.025 628.014C557.832 620.184 557.832 607.505 550.025 599.675L367.606 416.908C359.799 409.078 347.131 409.078 339.324 416.908L270.361 486.005C262.554 493.835 262.554 506.514 270.361 514.344L452.78 697.111C460.587 704.941 473.244 704.941 481.062 697.111Z"/></g><g filter="url(#filter1_diii_37_1357)"><path fill="#00C2FF" d="M453.365 697.608L383.356 627.464C375.83 619.926 375.83 607.709 383.356 600.171L645.357 337.653C652.884 330.115 665.079 330.115 672.594 337.653L742.602 407.796C750.129 415.334 750.129 427.551 742.602 435.089L480.601 697.608C473.086 705.134 460.891 705.134 453.365 697.608Z"/><path fill="url(#paint3_linear_37_1357)" d="M453.365 697.608L383.356 627.464C375.83 619.926 375.83 607.709 383.356 600.171L645.357 337.653C652.884 330.115 665.079 330.115 672.594 337.653L742.602 407.796C750.129 415.334 750.129 427.551 742.602 435.089L480.601 697.608C473.086 705.134 460.891 705.134 453.365 697.608Z"/><path fill="url(#paint4_linear_37_1357)" fill-opacity=".7" d="M453.365 697.608L383.356 627.464C375.83 619.926 375.83 607.709 383.356 600.171L645.357 337.653C652.884 330.115 665.079 330.115 672.594 337.653L742.602 407.796C750.129 415.334 750.129 427.551 742.602 435.089L480.601 697.608C473.086 705.134 460.891 705.134 453.365 697.608Z"/></g><defs><linearGradient id="paint0_linear_37_1357" x1="512" x2="512" y1="167" y2="857" gradientUnits="userSpaceOnUse"><stop/><stop offset="1" stop-color="#fff" stop-opacity="0"/></linearGradient><linearGradient id="paint1_linear_37_1357" x1="410.416" x2="410.416" y1="306.188" y2="638.106" gradientUnits="userSpaceOnUse"><stop offset=".005" stop-color="#fff" stop-opacity=".08"/><stop offset=".085" stop-opacity=".08"/><stop offset=".337" stop-color="#fff" stop-opacity=".1"/><stop offset=".661" stop-color="#fff" stop-opacity=".1"/><stop offset="1" stop-opacity=".1"/></linearGradient><linearGradient id="paint2_linear_37_1357" x1="410.193" x2="410.193" y1="411.035" y2="702.984" gradientUnits="userSpaceOnUse"><stop stop-color="#0080FF"/><stop offset="1" stop-color="#fff" stop-opacity="0"/></linearGradient><linearGradient id="paint3_linear_37_1357" x1="563.263" x2="563.263" y1="198.673" y2="620.752" gradientUnits="userSpaceOnUse"><stop offset=".005" stop-color="#fff" stop-opacity=".08"/><stop offset=".085" stop-opacity=".08"/><stop offset=".337" stop-color="#fff" stop-opacity=".1"/><stop offset=".661" stop-color="#fff" stop-opacity=".1"/><stop offset="1" stop-opacity=".1"/></linearGradient><linearGradient id="paint4_linear_37_1357" x1="562.979" x2="562.979" y1="332" y2="703.252" gradientUnits="userSpaceOnUse"><stop stop-color="#00C2FF"/><stop offset="1" stop-color="#fff" stop-opacity="0"/></linearGradient><filter id="filter0_diii_37_1357" width="331.375" height="335.411" x="244.506" y="401.035" color-interpolation-filters="sRGB" filterUnits="userSpaceOnUse"><feFlood flood-opacity="0" result="BackgroundImageFix"/><feColorMatrix in="SourceAlpha" result="hardAlpha" values="0 0 0 0 0 0 0 0 0 0 0 0 0 0 0 0 0 0 127 0"/><feOffset dy="13.462"/><feGaussianBlur stdDeviation="10"/><feColorMatrix values="0 0 0 0 0 0 0 0 0 0.501961 0 0 0 0 1 0 0 0 0.6 0"/><feBlend in2="BackgroundImageFix" result="effect1_dropShadow_37_1357"/><feBlend in="SourceGraphic" in2="effect1_dropShadow_37_1357" result="shape"/><feColorMatrix in="SourceAlpha" result="hardAlpha" values="0 0 0 0 0 0 0 0 0 0 0 0 0 0 0 0 0 0 127 0"/><feOffset dy="20.19"/><feGaussianBlur stdDeviation="45"/><feComposite in2="hardAlpha" k2="-1" k3="1" operator="arithmetic"/><feColorMatrix values="0 0 0 0 0 0 0 0 0 0.501961 0 0 0 0 1 0 0 0 0.6 0"/><feBlend in2="shape" result="effect2_innerShadow_37_1357"/><feColorMatrix in="SourceAlpha" result="hardAlpha" values="0 0 0 0 0 0 0 0 0 0 0 0 0 0 0 0 0 0 127 0"/><feOffset dy="15"/><feGaussianBlur stdDeviation="6.5"/><feComposite in2="hardAlpha" k2="-1" k3="1" operator="arithmetic"/><feColorMatrix values="0 0 0 0 1 0 0 0 0 1 0 0 0 0 1 0 0 0 0.3 0"/><feBlend in2="effect2_innerShadow_37_1357" result="effect3_innerShadow_37_1357"/><feColorMatrix in="SourceAlpha" result="hardAlpha" values="0 0 0 0 0 0 0 0 0 0 0 0 0 0 0 0 0 0 127 0"/><feOffset dy="-10"/><feGaussianBlur stdDeviation="7"/><feComposite in2="hardAlpha" k2="-1" k3="1" operator="arithmetic"/><feColorMatrix values="0 0 0 0 1 0 0 0 0 1 0 0 0 0 1 0 0 0 0.25 0"/><feBlend in2="effect3_innerShadow_37_1357" result="effect4_innerShadow_37_1357"/></filter><filter id="filter1_diii_37_1357" width="410.536" height="414.715" x="357.711" y="322" color-interpolation-filters="sRGB" filterUnits="userSpaceOnUse"><feFlood flood-opacity="0" result="BackgroundImageFix"/><feColorMatrix in="SourceAlpha" result="hardAlpha" values="0 0 0 0 0 0 0 0 0 0 0 0 0 0 0 0 0 0 127 0"/><feOffset dy="13.462"/><feGaussianBlur stdDeviation="10"/><feColorMatrix values="0 0 0 0 0 0 0 0 0 0.760784 0 0 0 0 1 0 0 0 0.6 0"/><feBlend in2="BackgroundImageFix" result="effect1_dropShadow_37_1357"/><feBlend in="SourceGraphic" in2="effect1_dropShadow_37_1357" result="shape"/><feColorMatrix in="SourceAlpha" result="hardAlpha" values="0 0 0 0 0 0 0 0 0 0 0 0 0 0 0 0 0 0 127 0"/><feOffset dy="20.19"/><feGaussianBlur stdDeviation="45"/><feComposite in2="hardAlpha" k2="-1" k3="1" operator="arithmetic"/><feColorMatrix values="0 0 0 0 0 0 0 0 0 0.760784 0 0 0 0 1 0 0 0 0.6 0"/><feBlend in2="shape" result="effect2_innerShadow_37_1357"/><feColorMatrix in="SourceAlpha" result="hardAlpha" values="0 0 0 0 0 0 0 0 0 0 0 0 0 0 0 0 0 0 127 0"/><feOffset dy="15"/><feGaussianBlur stdDeviation="6.5"/><feComposite in2="hardAlpha" k2="-1" k3="1" operator="arithmetic"/><feColorMatrix values="0 0 0 0 1 0 0 0 0 1 0 0 0 0 1 0 0 0 0.3 0"/><feBlend in2="effect2_innerShadow_37_1357" result="effect3_innerShadow_37_1357"/><feColorMatrix in="SourceAlpha" result="hardAlpha" values="0 0 0 0 0 0 0 0 0 0 0 0 0 0 0 0 0 0 127 0"/><feOffset dy="-10"/><feGaussianBlur stdDeviation="7"/><feComposite in2="hardAlpha" k2="-1" k3="1" operator="arithmetic"/><feColorMatrix values="0 0 0 0 1 0 0 0 0 1 0 0 0 0 1 0 0 0 0.25 0"/><feBlend in2="effect3_innerShadow_37_1357" result="effect4_innerShadow_37_1357"/></filter></defs></svg>